<?xml version="1.0" encoding="utf-8"?>
<!-- Generator: Adobe Illustrator 25.0.1, SVG Export Plug-In . SVG Version: 6.00 Build 0)  -->
<svg version="1.1" id="Слой_1" xmlns="http://www.w3.org/2000/svg" xmlns:xlink="http://www.w3.org/1999/xlink" x="0px" y="0px"
	 viewBox="0 0 500 500" style="enable-background:new 0 0 500 500;" xml:space="preserve">
<style type="text/css">
	.st0{fill:#FFFFFF;}
</style>
<path class="st0" d="M405.3,124.7c-1.68-6.63-5.11-13.7-7.64-19.88C367.38,28.39,301.22,1,247.8,1C176.28,1,97.52,51.36,87,155.18
	v21.21c0,0.89,0.29,8.84,0.7,12.81c5.9,49.47,43.07,102.05,70.83,151.53c29.87,53.01,60.86,105.15,91.56,157.27
	c18.93-34.02,37.8-68.47,56.3-101.61c5.04-9.72,10.9-19.44,15.94-28.72c3.36-6.18,9.79-12.36,12.73-18.11
	C364.93,292.13,413,234.26,413,177.27v-23.41C413,147.68,405.71,126.03,405.3,124.7z M249.11,231.17
	c-21.02,0-44.03-11.04-55.39-41.53c-1.69-4.85-1.56-14.58-1.56-15.47v-13.69c0-38.87,31.42-56.54,58.76-56.54
	c33.65,0,59.68,28.28,59.68,63.62C310.6,202.9,282.76,231.17,249.11,231.17z"/>
</svg>
